<svg id="Warstwa_1" data-name="Warstwa 1" xmlns="http://www.w3.org/2000/svg" viewBox="0 0 184.03 243.29">
  <defs>
    <style>
      .cls-1 {
        fill: #482012;
      }

      .cls-2 {
        fill: #fcf2b1;
      }

      .cls-3 {
        fill: #f2729d;
      }

      .cls-4 {
        fill: #66e2d2;
      }

      .cls-5 {
        fill: #fc9ca2;
      }
    </style>
  </defs>
  <g>
    <path class="cls-1" d="M103.54,236.43c-.88,3.19-1.48,6.63-6.2,6.86.06-1.95,2-3.56.71-5.42-3-13.43-6.15-26.85-9-40.32-.62-2.9-1.94-3-4.32-2.48-10.55,2.21-21.11,4.39-31.71,6.38-5.65,1.07-7.75-.12-9.24-5.77-1.91-7.23-3.43-14.58-4.76-21.94-.54-3-1.42-4.1-4.76-4.09-11.38,0-21-5.32-30.41-11a4.48,4.48,0,0,1-1.31-1.22c-1.08-1.47-3.66-3-1.93-4.76,1.32-1.33,2.52,1.36,3.73,2.28,8.76,6.65,18.41,11.12,29.47,12.26,2.82.29,3.9-.56,3-3.47-1.61-5.13-2.68-10.41-5-15.36-2-4.36-5.41-7-9.35-9.28-.25-.14-.65-.11-.83-.31-5.74-6.17-13.06-11.62-14.42-20.43-2-12.93-1.34-25.63,7.11-36.87,6.18-8.23,14.43-12.78,24-15.67,8.7-2.63,17.77-4.29,26.05-9.32-3.4-1.95-6.82-3.3-9.63-5.68C39,37.55,42.32,13.49,61.28,4.83A55.75,55.75,0,0,1,91.18.42c11.55,1.32,19.13,8.73,24.91,18.12,2,3.22,4,5.68,8,6.2A8.59,8.59,0,0,1,128.9,27c7.53,7.91,18.09,12.26,24.51,21.55,5.12,7.41,11.8,13.56,18.1,20,5.21,5.31,9.57,11.21,11.34,18.57,3.21,13.39-3.23,26-16.48,31.82a7.81,7.81,0,0,0-4.9,5.72,140.85,140.85,0,0,0-5,28.25c11.75-1.22,23.11-11.89,24.93-23.21.16-1,.16-1.82,1.32-1.8,1.31,0,1.16,1.17,1.23,2a14.46,14.46,0,0,1-4,11.54c-6.25,6.44-12.47,13.15-22.29,13.89-1.88.14-1.67,1.28-1.7,2.46-.13,4.95-.29,9.9-.4,14.84-.16,6.9-1.85,9.19-8.53,10.54-12.18,2.46-24.39,4.82-36.63,7-2.46.44-3.43,1.22-3,3.7a17.41,17.41,0,0,1,0,3.15c0,7,1.52,9.3,8.28,10.7a35.56,35.56,0,0,1,21.49,13c1.21-.51,0-2.77,1.79-2.47,1.21.21.85,1.41.87,2.23,0,3.27-.77,6.22-3.27,8.52l0,.06c-1.56-2.46.24-5.58-2.55-8.19-4.81-4.5-9.73-8.24-16.24-9.89-11.1-2.81-12.29-4.39-12.36-15.71,0-2.89-.2-4.63-3.85-3.37a37.55,37.55,0,0,1-7.5,1.35c-2.75.36-3.53,1.45-2.81,4.34,2.76,11,5.3,22.11,7.8,33.2C99.74,233.43,99.6,236.44,103.54,236.43Zm12.83-113.69-.07.06c4.78-.11,8-3.18,11.1-6.17,8.81-8.44,16.26-18.06,23.21-28,6.53-9.39,6.88-19.47,2.63-29.89-1.89-8-5.05-15.06-13.46-19.48,1.21,5,2.13,9.16,3.25,13.3,3.38,12.48-.31,22.71-9.85,31-10.08,8.79-19.67,18-26.57,29.61-1.37,2.29-5.49,4-3.58,7,1.48,2.34,5.18,2.69,8.14,3.19a7.69,7.69,0,0,0,4.43-.14ZM87.54,2.88l-.71-.18c-10-.16-19.84.95-28.37,6.76C50.35,15,46.65,22.86,47.8,32.67,48.92,42.25,54.15,49.08,63,52.81c12.5,5.28,26.3-2.13,27.77-14.67a14.11,14.11,0,0,0-7.18-13.5c-4.81-2.62-10.33-2.33-13.91.83-1.72,1.52-3.32,3.28-2.43,5.81s2.78,3.38,5.35,3.14c.77-.07,1.86-.52,2.13.84-.14.27-.21.68-.41.76-3.63,1.39-7.17.19-8.88-3s-.69-7.45,2.75-9.89c4.82-3.42,10.09-3.47,15.39-1.32A14.19,14.19,0,0,1,92.89,34,20.43,20.43,0,0,1,72.59,57c-1.93,0-3.81-.11-5.59,1.12-5.13,3.51-11,5.39-16.89,7.1-7.17,2.07-14.56,3.58-21.23,7.13C18.11,78.05,12.06,87.14,10.2,99.22c5.95-8.84,15.43-13.12,23.73-18.89.91-.62,2-2.06,3-.63s-.58,2.12-1.51,2.75c-5,3.36-10.06,6.52-14.93,10-4,2.91-7.5,6.43-8.74,11.54-3.84,8.33-3.32,15.65,1.73,20.94a20.61,20.61,0,0,1,5.89-16.06,47.89,47.89,0,0,1,11.3-8.82c8-4.7,16.61-8.19,25.2-11.69,9.53-3.89,19.31-7.3,27.76-13.43,1.56-.24,2.62-1.36,3.82-2.22A56,56,0,0,0,99.7,60.9c.67-.88,1.46-1.82,2.55-1.09s.36,1.88-.28,2.68c-1.22,1.51-2.49,3-3.82,4.41-10.32,11-23.8,16.86-37.39,22.47-9.67,4-19.58,7.47-28.67,12.75-5,2.88-9.46,6.37-12.68,11.22-5,7.5-4,17.25,2,21.68.75-.77.23-1.67.22-2.49a18.41,18.41,0,0,1,12.12-17.68c1-.34,2.24-1.08,2.86,0,.9,1.58-.77,1.94-1.76,2.43a19.6,19.6,0,0,0-8.93,7.91c-2.42,4.31-2.45,8.63.41,12.69,2.69,3.81,6.72,4.88,11.13,4.3a15.62,15.62,0,0,0,7.91-2.89c6.74-3.64,9.88-10.24,13.35-16.51,4.33-7.8,9.32-15,16.54-20.47,7.82-5.91,16.53-10.28,25.09-14.91,7.25-3.92,14.54-7.81,20.35-13.86,6.62-6.9,9.37-15.11,7-24.37a90,90,0,0,0-20-37.25c-5.2-5.88-12-9.48-20.23-9.13Zm70.92,118.75A15.93,15.93,0,0,0,148,124.4c-5.35,3.69-12.12,2.4-16-2.94-2.07-2.87-3.11-2.26-5.35-.46-7.42,5.94-15.54,6.68-23.93,2.21-2.1-1.12-3.13-1.07-4.77.8-5.43,6.19-11.8,11.09-20.11,12.83-7.89,1.65-12.53-.75-16-8.07-.44-.93-.12-2.56-2-2.74-5.69,10.54-13,19.12-27.07,18.88,3.6,6.72,5.23,13.4,6.76,20.08,2.1,9.19,3.65,18.51,5.75,27.7,1.34,5.92,3.33,7,9.42,5.95,3.24-.56,6.43-1.41,9.66-2q40.17-7.78,80.34-15.54c6.86-1.32,8-2.59,8.05-9.46.13-16.71,1.86-33.21,6.48-49.33,0-.36-.08-.72-.13-1.08ZM121.18,26.76c2.49,5.49,4.75,9.88,6.53,14.46,6.29,16.14,3,27.83-10.65,38.45a79.78,79.78,0,0,1-8.89,6.08C100.8,90,93.29,94.11,85.87,98.31a60.43,60.43,0,0,0-22,20.73c-.86,1.39-1.69,2.65-1.33,4.54,1.66,8.7,8,12.77,16.52,10.37a31,31,0,0,0,10.63-5.68c6.11-4.77,10.74-10.87,15-17.23a134.18,134.18,0,0,1,21.28-24.29c2.65-2.43,5.39-4.78,7.85-7.39,4-4.19,7.48-8.83,7.65-14.85A55.78,55.78,0,0,0,135,36.38C132.31,31.33,127.74,28.33,121.18,26.76Zm35,29.27a4.62,4.62,0,0,0,.17,3.47C160.67,72.21,158.35,83.68,150,94c-5.38,6.63-10.65,13.35-16.19,19.85-1.86,2.18-1.78,3.87-.13,5.88a9.35,9.35,0,0,0,8.16,3.87c4.58-.28,7.85-2.64,10.26-6.35,3.2-4.92,5.19-10.44,7.81-15.64.56-1.11.64-3.69,2.62-2.76,1.48.69-.13,2.42-.61,3.5-2.44,5.5-5.05,10.91-7.82,16.82,10.87-.88,19.1-5.19,24.17-14.25,4.95-8.84,3.57-17.68-1.72-25.94C171,70.39,162.86,64,156.23,56Z"/>
    <path class="cls-2" d="M159.21,122.27c-4.63,16.12-6.36,32.62-6.49,49.33-.05,6.87-1.19,8.14-8.05,9.46q-40.18,7.73-80.34,15.54c-3.23.63-6.42,1.48-9.66,2-6.09,1.05-8.08,0-9.42-5.95-2.1-9.19-3.65-18.51-5.75-27.7-1.53-6.68-3.16-13.36-6.76-20.08,14.08.24,21.38-8.34,27.07-18.88,1.92.18,1.6,1.81,2,2.74,3.45,7.32,8.09,9.72,16,8.07,8.31-1.74,14.68-6.64,20.11-12.83,1.64-1.87,2.67-1.92,4.77-.8,8.39,4.47,16.51,3.73,23.93-2.21,2.24-1.8,3.28-2.41,5.35.46,3.87,5.34,10.64,6.63,16,2.94a15.93,15.93,0,0,1,10.48-2.77ZM88.55,174.6c7.68-.08,14.84-5,17-11.78.39-1.2,1.52-2.94-.11-3.59-1.84-.74-1.73,1.51-2.21,2.54-4.58,9.73-12.47,12.49-22.24,7.7-.54-.27-1-.6-1.59-.85s-1.29-1-1.92-.09c-.52.75-.11,1.45.44,2A14.5,14.5,0,0,0,88.55,174.6Zm-25.3-3.47c-.08-4-2.24-5.79-5.39-5.82s-5.13,2.14-5.38,5.4c-.19,2.36,3.24,5.53,5.82,5.06S63.68,174.34,63.25,171.13Zm5-27.29A12,12,0,0,0,56.38,154c-.12.88-.48,1.87.71,2.2s1.43-.58,1.66-1.5a10.92,10.92,0,0,1,3.84-6.38c4-3.09,8-2.57,12.82,1.61.76.66,1.4,2.52,2.77,1.09,1.12-1.17-.2-2.18-.92-3A11.91,11.91,0,0,0,68.21,143.84Zm46.17,1.09a8.67,8.67,0,0,0-3-4.56c-5-3.85-12.25-1.45-15,5-.44,1-1.54,2.38,0,3.08,1.35.62,1.43-1.14,1.92-1.91,4.63-7.4,8.89-7.5,13.8-.27.45.67,1,1.16,1.81.82C114.46,146.88,114.54,146.25,114.38,144.93ZM129,157.4c-.14-2.58-1.58-4.29-4.5-4-2.68.23-4.62,1.94-4.47,4.65a4.46,4.46,0,0,0,4.79,4.35C127.84,162.38,129,160.49,129,157.4Zm-41.49-5.35c0-1.06,1.5-2.28-.35-3-.63-.27-1,.28-1.42.75-2.14,2.62-.57,9.24,2.53,10.63.89.4,1.8.49,2.4-.37s0-1.37-.64-1.85C88.05,156.58,86.84,154.68,87.52,152.05Z"/>
    <path class="cls-3" d="M11.76,104c1.24-5.11,4.7-8.63,8.74-11.54,4.87-3.49,10-6.65,14.93-10,.93-.63,2.48-1.41,1.51-2.75s-2.1,0-3,.63c-8.3,5.77-17.78,10-23.73,18.89,1.86-12.08,7.91-21.17,18.68-26.9,6.67-3.55,14.06-5.06,21.23-7.13C56,63.48,61.87,61.6,67,58.09,68.78,56.86,70.66,57,72.59,57A20.43,20.43,0,0,0,92.89,34a14.19,14.19,0,0,0-9.33-12.2c-5.3-2.15-10.57-2.1-15.39,1.32-3.44,2.44-4.5,6.66-2.75,9.89s5.25,4.37,8.88,3c.2-.08.27-.49.41-.76-.27-1.36-1.36-.91-2.13-.84-2.57.24-4.49-.73-5.35-3.14s.71-4.29,2.43-5.81c3.58-3.16,9.1-3.45,13.91-.83a14.11,14.11,0,0,1,7.18,13.5C89.28,50.68,75.48,58.09,63,52.81,54.15,49.08,48.92,42.25,47.8,32.67,46.65,22.86,50.35,15,58.46,9.46,67,3.65,76.8,2.54,86.83,2.7c.24,0,.47.11.71.18l-.11-.07c7.12,5.44,14.48,10.59,20.09,17.75,7.57,9.65,12.52,20.07,9.8,32.76-2.83,13.14-10.48,23-21.36,30.46S74.14,98.52,63.51,106.32c-11.23,8.24-17.39,19.08-18.12,33a15.62,15.62,0,0,1-7.91,2.89c-4.41.58-8.44-.49-11.13-4.3-2.86-4.06-2.83-8.38-.41-12.69a19.6,19.6,0,0,1,8.93-7.91c1-.49,2.66-.85,1.76-2.43-.62-1.1-1.9-.36-2.86,0a18.41,18.41,0,0,0-12.12,17.68c0,.82.53,1.72-.22,2.49-6.06-4.43-7-14.18-2-21.68,3.22-4.85,7.72-8.34,12.68-11.22,9.09-5.28,19-8.76,28.67-12.75C74.35,83.76,87.83,77.94,98.15,66.9c1.33-1.42,2.6-2.9,3.82-4.41.64-.8,1.52-1.85.28-2.68s-1.88.21-2.55,1.09A56,56,0,0,1,87.46,72.72c-1.2.86-2.26,2-3.82,2.22.38-3.9-1.76-2-3.18-1.31a238.33,238.33,0,0,1-34.2,12.31c-11.85,3.43-23.59,7.13-32.17,16.85A7.56,7.56,0,0,1,11.76,104Z"/>
    <path class="cls-3" d="M121.18,26.76c6.56,1.57,11.13,4.57,13.81,9.62a55.78,55.78,0,0,1,6.44,28.13c-.17,6-3.69,10.66-7.65,14.85-2.46,2.61-5.2,5-7.85,7.39A134.18,134.18,0,0,0,104.65,111c-4.25,6.36-8.88,12.46-15,17.23A31,31,0,0,1,79,134c-8.51,2.4-14.86-1.67-16.52-10.37-.36-1.89.47-3.15,1.33-4.54a60.43,60.43,0,0,1,22-20.73c7.42-4.2,14.93-8.27,22.3-12.56a79.78,79.78,0,0,0,8.89-6.08C130.73,69.05,134,57.36,127.71,41.22,125.93,36.64,123.67,32.25,121.18,26.76Z"/>
    <path class="cls-3" d="M156.23,56c6.63,8,14.73,14.36,20.27,23,5.29,8.26,6.67,17.1,1.72,25.94-5.07,9.06-13.3,13.37-24.17,14.25,2.77-5.91,5.38-11.32,7.82-16.82.48-1.08,2.09-2.81.61-3.5-2-.93-2.06,1.65-2.62,2.76-2.62,5.2-4.61,10.72-7.81,15.64-2.41,3.71-5.68,6.07-10.26,6.35a9.35,9.35,0,0,1-8.16-3.87c-1.65-2-1.73-3.7.13-5.88,5.54-6.5,10.81-13.22,16.19-19.85,8.4-10.35,10.72-21.82,6.45-34.53A4.62,4.62,0,0,1,156.23,56Z"/>
    <path class="cls-4" d="M45.39,139.31c.73-13.91,6.89-24.75,18.12-33C74.14,98.52,85.08,91.2,96,83.78s18.53-17.32,21.36-30.46c2.72-12.69-2.23-23.11-9.8-32.76-5.61-7.16-13-12.31-20.09-17.75,8.27-.35,15,3.25,20.23,9.13a90,90,0,0,1,20,37.25c2.4,9.26-.35,17.47-7,24.37-5.81,6-13.1,9.94-20.35,13.86-8.56,4.63-17.27,9-25.09,14.91C68.06,107.79,63.07,115,58.74,122.8,55.27,129.07,52.13,135.67,45.39,139.31Z"/>
    <path class="cls-2" d="M115.6,123.22a7.69,7.69,0,0,1-4.43.14c-3-.5-6.66-.85-8.14-3.19-1.91-3,2.21-4.73,3.58-7,6.9-11.59,16.49-20.82,26.57-29.61,9.54-8.31,13.23-18.54,9.85-31-1.12-4.14-2-8.33-3.25-13.3,8.41,4.42,11.57,11.51,13.46,19.48-1,11.08-5.76,20.53-12.25,29.38-8.39,11.46-16.47,23.14-24.69,34.72l.07-.06Z"/>
    <path class="cls-2" d="M11.76,104a7.56,7.56,0,0,0,2.33-1.21c8.58-9.72,20.32-13.42,32.17-16.85a238.33,238.33,0,0,0,34.2-12.31C81.88,73,84,71,83.64,74.94c-8.45,6.13-18.23,9.54-27.76,13.43-8.59,3.5-17.17,7-25.2,11.69a47.89,47.89,0,0,0-11.3,8.82,20.61,20.61,0,0,0-5.89,16.06C8.44,119.65,7.92,112.33,11.76,104Z"/>
    <path class="cls-4" d="M116.3,122.8c8.22-11.58,16.3-23.26,24.69-34.72,6.49-8.85,11.24-18.3,12.25-29.38,4.25,10.42,3.9,20.5-2.63,29.89-7,10-14.4,19.6-23.21,28C124.27,119.62,121.08,122.69,116.3,122.8Z"/>
    <path class="cls-4" d="M115.6,123.22l.77-.48Z"/>
    <path class="cls-2" d="M158.46,121.63l.61-.44c.05.36.09.72.13,1.08C159,122.05,158.71,121.84,158.46,121.63Z"/>
    <path class="cls-1" d="M88.55,174.6a14.5,14.5,0,0,1-10.62-4.08c-.55-.54-1-1.24-.44-2,.63-.9,1.3-.18,1.92.09s1,.58,1.59.85c9.77,4.79,17.66,2,22.24-7.7.48-1,.37-3.28,2.21-2.54,1.63.65.5,2.39.11,3.59C103.39,169.59,96.23,174.52,88.55,174.6Z"/>
    <path class="cls-5" d="M63.25,171.13c.43,3.21-2.3,4.15-5,4.64s-6-2.7-5.82-5.06c.25-3.26,2.12-5.42,5.38-5.4S63.17,167.1,63.25,171.13Z"/>
    <path class="cls-1" d="M68.21,143.84A11.91,11.91,0,0,1,77.26,148c.72.86,2,1.87.92,3-1.37,1.43-2-.43-2.77-1.09-4.87-4.18-8.77-4.7-12.82-1.61a10.92,10.92,0,0,0-3.84,6.38c-.23.92-.47,1.83-1.66,1.5s-.83-1.32-.71-2.2A12,12,0,0,1,68.21,143.84Z"/>
    <path class="cls-1" d="M114.38,144.93c.16,1.32.08,1.95-.55,2.2-.83.34-1.36-.15-1.81-.82-4.91-7.23-9.17-7.13-13.8.27-.49.77-.57,2.53-1.92,1.91-1.54-.7-.44-2.07,0-3.08,2.8-6.49,10.07-8.89,15-5A8.67,8.67,0,0,1,114.38,144.93Z"/>
    <path class="cls-5" d="M129,157.4c0,3.09-1.17,5-4.18,5A4.46,4.46,0,0,1,120,158c-.15-2.71,1.79-4.42,4.47-4.65C127.43,153.11,128.87,154.82,129,157.4Z"/>
    <path class="cls-1" d="M87.52,152.05c-.68,2.63.53,4.53,2.52,6.12.6.48,1.17,1.1.64,1.85s-1.51.77-2.4.37c-3.1-1.39-4.67-8-2.53-10.63.38-.47.79-1,1.42-.75C89,149.77,87.48,151,87.52,152.05Z"/>
  </g>
</svg>
