<svg id="Warstwa_1" data-name="Warstwa 1" xmlns="http://www.w3.org/2000/svg" viewBox="0 0 1920 3908.98">
  <defs>
    <style>
      .cls-1 {
        fill: #ffa0bc;
      }

      .cls-2 {
        fill: #f9d7e2;
      }

      .cls-3 {
        fill: #f998b7;
      }

      .cls-4 {
        fill: #81e0d2;
      }

      .cls-5 {
        fill: #fff;
      }
    </style>
  </defs>
  <path class="cls-1" d="M449.57,1936.15c-4.75,5.58-12,4.91-16.75,11.65,20-5.39,35.8-16.59,54.42-20.25-4.34,4.46-9.83,7-15.44,9.33-11.61,4.76-22.24,11.4-32.91,17.84-3.13,1.89-7.94,3.27-8.08,9.18-.05,1.86-4.87,3.94-7.79,5.34-7.24,3.49-14.64,6.64-21.87,10.32,15.37-2.53,28.4-13.57,44.93-13.4-.1,4.82-3.46,6-6.26,7.34-10.33,4.79-20.59,9.77-31.19,13.88-29.11,11.26-58.49,21.8-87.51,33.27-12.27,4.85-24.46,9.85-36.77,14.82l30.18-8.86a72.5,72.5,0,0,1,7.44-2c3.94-.7,4.23,0,2.59,6.43a99.19,99.19,0,0,1,29-5.53,252.32,252.32,0,0,1-42.5,16.2c.27,2.72,2.39,1.18,3.28,2,1.12,1.08.51,2.35-.53,2.46-13.34,1.38-23.7,11.83-37.41,12.19-3.37.09-5.16,3.3-6.74,6.85,19.32-5.67,38.61-11.44,58-17s38.61-11.4,57.14-19.58c1.66,4.33-1.14,4.83-2.73,5.74a124.24,124.24,0,0,1-28.36,11.68c-9.5,2.72-18.62,6.72-28,9.86-20.12,6.73-40.67,12.36-60.37,20.16-17.66,7-35.62,10-54.33,12-14.78,1.57-28.87,8.12-43.73,11l48.77-4.93c.13.78.25,1.56.37,2.34-21.77,7-44.65,9.36-66.67,14.57,6,2.23,6,2.15,12.46,1.67,15.79-1.16,31.18-4.91,46.79-7.18a344.57,344.57,0,0,0,59.74-14.64,31.48,31.48,0,0,1,15.08-1.45c-2.36,3-5.56,4.06-8.17,4.73-15.61,4-30,11.76-46.33,13.76-12.32,1.51-24.06,6.42-36.52,8.17-16.35,2.3-32.55,5.64-48.85,8.32-4.4.73-8.64,1.61-12.6,3.71-1.29.69-2.77,1.62-4.1,1.52-11.26-.88-21.27,4.76-31.94,6.08-22.09,2.74-43,9.5-64.05,16-6.87,2.1-12,7.06-18.2,10.21-9.66,4.92-11.36,4.4-15-5.84-2.27-6.41-5.22-11.95-11.54-15.42s-7.63-6.59-4-12.13c3.36-5.17,2.89-10.29,3.21-15.73.24-4,.11-5.39-4.71-6.18-6.6-1.09-6-8-5.51-12.69.54-5.67,1.95-10.77-4.3-14.1a2.36,2.36,0,0,1-1-1.87c.59-7.95-2.19-14.69-5.06-22.07-2.38-6.15-2.33-13.94-4.43-20.9-1.48-4.91-1.6-10.08,3-14.23,3.94-3.55,1.74-9.76,4.4-14.41,4.21,2.87,1.79,6,2,8.6s.5,5.44,3.27,6.47c3,1.13,4.84-1.22,6.08-3.49,2.52-4.58,6.52-8,9.49-12.12,4.43-6.19,9.32-11.29,17.4-12.26,3-.37,5.18-2.66,7.25-4.77,7.65-7.82,17.48-11.35,27.36-15.54,17-7.21,35.59-8.47,52.49-15.48,12.38-5.13,25.16-4.68,38-3.53,23.44,2.09,46.88,3.79,70.43,2.22,6.61-.44,13.19.74,19.68.79,23.76.16,47.58.56,71-5.4,13.85-3.53,28.17-4.83,42-8.79,10.49-3,21.34-4.75,32.28-6.29-22.05,7-42.3,18.94-65.19,23.73,52.22-8.27,100.68-29.34,150.79-44.84-8.63,6.61-18.68,10.31-28.47,14.08-30.16,11.63-59.87,24.32-89.77,36.56a36.37,36.37,0,0,1-8.41,2.48c-6.67,1-11.14,4.71-15.29,11.25,11.31,1,20.94-2,30.43-5.49,23.07-8.55,45.82-18,69.6-24.46,9.27-2.54,17.59-7.41,26.38-11.14C440.45,1937.41,443.77,1934.74,449.57,1936.15Z"/>
  <circle class="cls-2" cx="1410.5" cy="2900.61" r="25.5"/>
  <circle class="cls-2" cx="1385" cy="2959.48" r="25.5"/>
  <circle class="cls-2" cx="1431.07" cy="2955.86" r="15.12"/>
  <circle class="cls-2" cx="1456.76" cy="2867.29" r="15.12"/>
  <circle class="cls-2" cx="1460.94" cy="2915.73" r="10.94"/>
  <circle class="cls-2" cx="1467.7" cy="2944.92" r="10.94"/>
  <circle class="cls-2" cx="1495.12" cy="2882.41" r="6.88"/>
  <circle class="cls-2" cx="1488.24" cy="2915.73" r="6.88"/>
  <circle class="cls-2" cx="1512.08" cy="2900.61" r="6.88"/>
  <circle class="cls-1" cx="1838.23" cy="967.21" r="251.56"/>
  <g>
    <path class="cls-3" d="M1216.07,1678.86c-1.66-1.15-3.57-2.65-.29-3.73a46.54,46.54,0,0,0,7.92-3.54c1,.27,1.92-.54,2.92-.22,9.89-1,19.67-2.63,29-6.17,2.21-.83,1.67,1.59,1.06,2.84a8.78,8.78,0,0,1-4,3.68c-4,2-8.64,2.18-13,3s-8.73,1.69-13.15,2.33c-1,.14-2,.3-3,.51-.49.14-1,.24-1.47.34a23,23,0,0,0-2.91,1A3.76,3.76,0,0,1,1216.07,1678.86Z"/>
    <path class="cls-3" d="M1211.61,1660.63c-1.15-2.46.88-3.42,2.26-4.57,7.11-6,13.11-13,19.44-19.75.9-.49,1.77-1,2.69-1.45,2.66-1.26,3.83.55,2.08,2.8s-3.63,4.52-5.19,6.94c-1.32,2.06-3,6.12-5.16,7.37A26.43,26.43,0,0,1,1211.61,1660.63Z"/>
  </g>
  <g>
    <path class="cls-2" d="M303.28,1033.75l-.57-.17A1.85,1.85,0,0,0,303.28,1033.75Z"/>
    <path class="cls-4" d="M339.26,1034c-1.15.44-1.1-.74-1.59-1.18-5.38-.19-10.55-1.56-15.76-2.67-3.54-.76-7.17-.5-10.73-1.19a27.58,27.58,0,0,1-9.17-3.53c-4.83-3-10.13-8.92-13.19-14.47-8.42-15.28-14.9-31.46-21.77-47.44-4.6-10.68-7.28-22.07-10.74-33.17s-7-21.86-12.63-31.94c-14.57-26.06-35.58-45.37-62.36-58.22A93.42,93.42,0,0,0,134.16,831c-8.18.54-16,2.53-22.92,7.16-10,6.68-15,16.4-15.87,28.06-1.77,22.87,5.11,42.16,24.37,56,11.84,8.5,24.69,15.18,38,21,16,7,32.44,13.12,47.58,22,6.54,3.83,13,7.75,19.26,12.08,1.73,1.21,3.36,4.52,6.43,2,.48,1.13-1.59,1.77-.19,2.73,2,1.4,3.7,3.3,6,4.31.87-.75,1.57.1,1.91.51.49.59-.15.64-.63.51,1.64,2.35,4.3,3.55,6.24,5.65,3.08,3.34,6.63,6.26,10,9.37,4.28,4,8.24,8.29,12.72,12.11a136.86,136.86,0,0,0,11.25,9.11l1.12.32c.12-.4.12-1,.74-.8a1,1,0,0,1,.5,1.28l-.24.52c1.26.82,2.33,2,4,2,.16-.46-.21-1.2.65-1.25a.64.64,0,0,1,.49.38c.08.61-.54.67-.85,1,0,.74.66.84,1.13,1,2.67,1.15,5.37,2.27,8.05,3.4.11-.29.33-.59.31-.87-.09-1.08,1-1.41,1.49-1.71.82-.53.35,1.18,1.19,1.24,1.44.47.58,1.35.38,2.12,1.19.89,2.71.85,4,1.44a8.16,8.16,0,0,1,.68-1.75c.27-.42-1.34-.85,0-1,1-.11.9.69.79,1.3s-.69,1.2-.09,1.52l.57.17.67-.23c1.15-.36.3-2,1.54-2.4.49,1.28-.66,2.14-.74,3.2a48.31,48.31,0,0,1,8,.71,90.13,90.13,0,0,0,11.68.94c1.24,0,2.87.57,3.83-1,.37-.44.88-.75,1.36-.39.15.11-.13.82-.22,1.25,1.8,0,3.66-.61,5.27-.54a33.66,33.66,0,0,0,5.22-.18A.88.88,0,0,0,339.26,1034ZM155.92,855.65a29.59,29.59,0,0,1-4,5.48c-2.78,3.29-5.56,6.6-8.44,9.8a13.69,13.69,0,0,0-3.5,10.13c.12,3.9.66,7.82-.08,11.71-.28,1.48-.1,3.85-2.05,3.8-1.78,0-1.44-2.38-1.64-3.74a42.37,42.37,0,0,1,1-18.06c.45-1.55,0-2.39-1-3.65-5.08-6.16-6.53-13.38-5.4-21.18.1-.71.4-1.45,1.29-1.53.74-.07,1.18.5,1.53,1a6.67,6.67,0,0,1,1,3.42c.17,2.39.25,4.79.44,7.18a24.27,24.27,0,0,0,.59,4.26c1.11,4.21,3.32,4.81,6.31,1.75,2.58-2.64,4.58-5.74,6.86-8.62a22.71,22.71,0,0,1,3.78-4c.65-.51,1.54-1.45,2.29-.72S156.51,854.59,155.92,855.65Zm11.56,31.8a30.09,30.09,0,0,1-8,12.21c-2.23,2-4.7,3.41-7.85,2.59a5.94,5.94,0,0,1-4.57-5c-1.1-6.56,1-12.5,3.94-18.2a1.92,1.92,0,0,1,2.85-.88c1.18.79.63,1.92,0,2.74a17.72,17.72,0,0,0-3.78,11.86c.06,1.93.21,4,2.28,4.94s4.1-.1,5.65-1.61a21.75,21.75,0,0,0,6.23-11.41c.17-.86.37-1.72.59-2.57s.65-1.87,1.91-1.7a2.23,2.23,0,0,1,2,2.33C168.89,884.55,167.92,886.1,167.48,887.45Zm25.4,32.22a1.8,1.8,0,0,1-2.69,1.11c-1.18-.48-1.4-1.21-1-2.45,1.05-3.28,1.94-6.61,2.91-9.91.24-.79.53-1.6-.2-2.22a2.1,2.1,0,0,0-2.27-.06c-3.08,1.18-5.31,3.51-7.67,5.65-.73.67-1.32,1.67-2.63.94a2.62,2.62,0,0,1-1.32-2.81c.09-2.12,1.2-4,1.39-6.07a15.41,15.41,0,0,0,.17-2.13,1.93,1.93,0,0,0-1.06-1.77c-.84-.43-1.38.17-1.89.64a45.39,45.39,0,0,0-5.91,7.2c-.69,1-1.3,1.88-2.62,1.56a2.81,2.81,0,0,1-2-2.51c-.82-4.13.19-8.1,1.22-12.05a37.27,37.27,0,0,1,1.83-4.95,1.69,1.69,0,0,1,2.33-1.06c1.17.43.93,1.33.65,2.19a42.64,42.64,0,0,0-2.07,8.62,1.76,1.76,0,0,0,.22,1.42c1.65-.49,2.46-2,3.42-3.17,1.1-1.41,2.11-3.22,4.15-2.54a6.5,6.5,0,0,1,4.61,4.48c.49,1.85.22,3.85,1.09,5.72a28.55,28.55,0,0,1,5.82-3.32q5.88-2.22,6.66,4.09a17.34,17.34,0,0,1-.86,7.09C194.57,915.51,193.68,917.58,192.88,919.67ZM221.67,940c-.66,1.18-1.68,1-2.71.43s-1.06-1.36-.62-2.39c1.3-3.11,2.53-6.25,3.77-9.38.31-.79.91-1.66.07-2.43a2.42,2.42,0,0,0-2.5-.27c-3,.94-5.32,2.9-7.79,4.68-.75.55-1.37,1.77-2.65.93s-1.38-2-1.14-3.36c.33-1.85,1.31-3.45,1.83-5.21a8.63,8.63,0,0,0,.51-2.58c0-1.92-1.29-2.53-2.82-1.36A44.22,44.22,0,0,0,201,925.6c-.76.9-1.47,1.78-2.77,1.29a3,3,0,0,1-1.72-2.94c-.22-4.68,1.31-9,3.09-13.21a20.61,20.61,0,0,1,1.67-3.19,1.74,1.74,0,0,1,2.47-.71c1.28.62.62,1.41.35,2.18-1.13,3.16-2.73,6.18-3,9.84,1.93-.46,2.91-1.78,4-2.91s2.33-2.89,4.18-2.12c2.15.89,4,2.45,4.3,5,.21,1.82.2,3.66.3,5.66,2.1-.89,4-1.85,6-2.5,4.34-1.41,6.69.36,6.52,5C226.18,931.77,224,935.9,221.67,940Zm6,38.39c.19-.72.37-1.44.58-2.22C230.18,977.37,228.47,977.8,227.68,978.35Zm18.41-39.44a117.22,117.22,0,0,1-21.24,23.93c-1.09.95-2.75,2.72-3.69,1.95-1.53-1.25.08-3.12.83-4.49,1.85-3.39,4.71-6,7.42-8.72,1.45-1.45,2-2.32.54-4.4-2.67-3.91-2-8.44-.79-12.76a23,23,0,0,1,4.69-8.58c.59-.72,1.22-1.68,2.37-1s.45,1.56.19,2.34c-.54,1.59-1.17,3.16-1.76,4.73-.83,2.08-2,4-2.45,6.26a9.28,9.28,0,0,0,0,4,4.32,4.32,0,0,0,2.6,3.25c1.52.54,2.26-.95,3.06-1.84,1.76-2,3.37-4,5.05-6.06a3.37,3.37,0,0,1,.72-.64c1.09-.76,2.4-2.13,3.55-1C247.94,936.51,246.73,938,246.09,938.91ZM241,987.26c-.51-.06-.91-.23-.67-.91s.94-.71,1.56-.81a1.5,1.5,0,0,1,.37,1.48C242,988,241.44,987.31,241,987.26Zm10.28,8c-.22.31-.52.33-.9.13-.11-.09-.43-.24-.15-.46a1.29,1.29,0,0,1,.85-.2C251.33,994.78,251.44,995.05,251.28,995.29Zm3.87,1.89c-.54-.13-.6-.39-.49-.71s.2-.63.57-.57a.63.63,0,0,1,.5.86C255.67,997,255.3,997.09,255.15,997.18Zm5.27,6.83a.29.29,0,0,1-.23-.47,1.21,1.21,0,0,1,.79-.19c.13,0,.23.31.43.61A9.85,9.85,0,0,1,260.42,1004Zm11.41,7.15c-.48,0-.57-.44-.55-.83,0-.07.32-.13.42-.17.39.15.68.3.59.66A.6.6,0,0,1,271.83,1011.16Zm5.49,9.3s-.13-.4-.3-.91C278.15,1019.59,277.39,1020.5,277.32,1020.46Zm4,2c-.15.31-.42.57-.69.31s-.29-.64-.43-1l.78-.27C281.66,1021.72,281.53,1022.06,281.35,1022.45Zm5.43,2.56c.07-.68.13-1.29.2-1.94.13-.15.21-.1.35.09C287.93,1024,288.28,1024.7,286.78,1025Zm3.58,3.7a.43.43,0,0,1-.26-.7c.12-.19.33-.37.54-.09s.23.36.39.61C290.76,1028.61,290.54,1028.76,290.36,1028.71Zm1.15-2.27c0-.19-.12-.42-.05-.55s.33-.18.51-.26c.06.17.13.34.21.57Zm.81,2c-1,.13-.18-.53-.19-.84s-.15-.5.29-.47C293,1027.67,292.73,1028.44,292.32,1028.49Zm2.91-2.87c-.16,0-.38-.33-.35-.45a.75.75,0,0,1,.84-.6c.06,0,.1.34.13.45C295.7,1025.38,295.6,1025.72,295.23,1025.62Zm5.36,6.32c-.7.46-.61-.4-.94-.57l-1,.33a1.08,1.08,0,0,1,1-1.27c.05,0,.13,0,.16.1a.85.85,0,0,1,0,.23c.45.15,1,.11,1.15.77C301.06,1031.9,300.75,1031.84,300.59,1031.94Zm7.22.23c0-.62,0-1.17.5-1.5a1.08,1.08,0,0,1,.42.48C308.94,1032,308,1031.68,307.81,1032.17Zm2.59-.39a3.35,3.35,0,0,1-.61.33c.08-.56,0-1.32.59-1.26S310.79,1031.46,310.4,1031.78Zm1.64,2.15c-.33-.12-.32-.46-.23-.74s.14-.86.63-.72a.63.63,0,0,1,.3,1C312.6,1033.68,312.5,1034,312,1033.93Zm9.59-.8c-.17.51-.56.8-1.05.4a1.52,1.52,0,0,1-.61-1.39,1.24,1.24,0,0,1,1.52-.18C322.14,1032.28,321.76,1032.74,321.63,1033.13Zm3.91.13c-.15-.25-.36-.46-.77-1,1.07.25,1.94.22,1.93,1.36C326.68,1034.53,326.2,1034.36,325.54,1033.26Z"/>
    <path class="cls-2" d="M360.89,1030.71h0c-3.15-.29-6.38-2.22-9.37.48-1.73-1.26-3.32-.06-4.81.46a23.73,23.73,0,0,1-7.82,1.23c.07.22.15.43.22.65a3.92,3.92,0,0,0,.6.23c.5.41.88.85.15,1.39.88-.24,1.85.33,2.59-1,.86-1.49.42,1.07,1.75.8,5.35-1.08,10.79-1.65,16.2-2.36a1.69,1.69,0,0,0,1.66-1.32l-1.17-.59Z"/>
    <path class="cls-2" d="M339.71,1033.76a3.92,3.92,0,0,1-.6-.23l.15.44a.88.88,0,0,1,.6,1.18C340.59,1034.61,340.21,1034.17,339.71,1033.76Z"/>
    <path class="cls-2" d="M255.23,995.9c-.37-.06-.47.29-.57.57s0,.58.49.71c.15-.09.52-.21.58-.42A.63.63,0,0,0,255.23,995.9Z"/>
    <path class="cls-2" d="M251.08,994.76a1.29,1.29,0,0,0-.85.2c-.28.22,0,.37.15.46.38.2.68.18.9-.13S251.33,994.78,251.08,994.76Z"/>
  </g>
  <g>
    <path class="cls-5" d="M1884.12,943.65a104.32,104.32,0,0,0,10.28-14.32c1.48-2.49,6.26-10.52,2.88-13.15s-13.12,14.74-15.19,17.56c-11,15-27.45,22.85-44,30.29a137.87,137.87,0,0,1-43.17,11.43,4.15,4.15,0,0,0-3.58,2.32c0,.11,26.08-1.46,28.86-1.86C1844.12,972.49,1868.08,962.47,1884.12,943.65Z"/>
    <path class="cls-5" d="M1844,984c-6,2.15-11.51,5-17.65,6.76a210.16,210.16,0,0,1-30,6.25c-5.25.7-10.51,1.15-15.79,1.51-2.32.15-11.11,1.91-4.59,5.06a9,9,0,0,0,3.66.65,136.09,136.09,0,0,0,65.91-15.2c3-1.54,6.55-3.45,7.43-6.93C1850.35,981.93,1847.14,982.87,1844,984Z"/>
  </g>
  <path class="cls-4" d="M373.05,1823.8c-.52-3.36-.53-3.44,2.38-3.84a12.46,12.46,0,0,0,8.08-4.15,40.94,40.94,0,0,1,4.73-4.58c7.67-6.36,16.15-3.88,19.05,5.67a55.32,55.32,0,0,0,2.71,6.82c2.62,5.71,7.51,6.51,12.12,2.1,2.24-2.14,4.34-4.46,6.75-6.39,2.09-1.67,4.34-3.21,7.32-3.1,5.56.22,9.36,3.47,11.24,10a31.87,31.87,0,0,0,2.69,7.24c2.48,4.33,6.44,5.24,10.32,2.1,2.8-2.28,5.28-5,8.05-7.28,3-2.51,6.4-3.84,10.44-2.7a8.8,8.8,0,0,1,5.27,3.7,26.57,26.57,0,0,1,3.49,7.31,37,37,0,0,0,2.56,6.06c1.82,3.82,6,4.73,9.48,2.2a33.23,33.23,0,0,0,4.32-3.9,30.4,30.4,0,0,1,8.22-6.4,7.28,7.28,0,0,1,6,0,1.9,1.9,0,0,1,1.34,2.13,1.79,1.79,0,0,1-1.83,1.7c-5.55-.64-8.31,3.5-11.59,6.68-1.31,1.27-2.76,2.31-4.13,3.47-5.82,4.95-14.71,1.39-16.89-6.17a56.34,56.34,0,0,0-3.23-8.28c-2.28-4.87-5.81-5.48-10.92-2.4-1.89,1.14-3.2,3-4.67,4.64a18.91,18.91,0,0,1-5.81,4.48c-7,3.37-13-1.12-15-6.67-.95-2.68-2.15-5.24-3-8-1.79-5.8-6.47-7.13-11.06-3.23-2.56,2.17-4.9,4.6-7.43,6.81a11.79,11.79,0,0,1-6.91,3.09c-4.5.37-7.67-1.61-10.05-5.27-2.15-3.3-2.92-7.16-4.42-10.72-2.19-5.24-7.47-6.21-11.9-2.06-3,2.81-6,5.7-9.12,8.36a6.29,6.29,0,0,0-.74.22,6.57,6.57,0,0,1-4.51,1.13,5.57,5.57,0,0,0-.71.14c-.34-.16-.67-.33-1-.51h0c-.49-.38-1.18,0-1.67-.43Z"/>
  <g>
    <path class="cls-4" d="M440.84,2858.89c-.42.73-1.27.84-1.94,1.22-5.54,3.19-10.67,6.87-14.6,12a14.42,14.42,0,0,0-2.1,14.71,23.15,23.15,0,0,0,10.93,12.39c2.87,1.57,6,1.94,9.17,2.19a19.74,19.74,0,0,0,6-.13,1,1,0,0,1,1.24.56c2.55,4,6.6,5.68,10.91,6.83,5,1.34,10.15,1.13,15.27,1a2,2,0,0,0,.55-.24c0-.74-.59-.83-1-.93a45.7,45.7,0,0,0-6.18-1,51.35,51.35,0,0,1-11.28-1.75,10.31,10.31,0,0,1-7-6.28c-1.35-3.66-.92-7.32.29-11,2.16-6.51,7.12-10.1,13-12.77a8.89,8.89,0,0,1,3-.3c.28,0,.58-.11.67-.44s-.13-.68-.46-.86a3.78,3.78,0,0,0-3.15-.19c-5.31,1.91-10.24,4.39-13.12,9.61a22.66,22.66,0,0,0-3.06,11.78c.09,3.24-.3,3.61-3.57,3.56a21.85,21.85,0,0,1-12.12-3.35,20.2,20.2,0,0,1-7.9-10.3,12.13,12.13,0,0,1,1.37-10.58,24.27,24.27,0,0,1,6.25-6.8,54.3,54.3,0,0,1,9.18-6.08c1.27-.62,2.48-1,3.88-.23a5.66,5.66,0,0,0,3.38.5,1.29,1.29,0,0,0,1.2-.77,1.38,1.38,0,0,0-.35-1.59,4.35,4.35,0,0,0-3.27-1.47c-2.48.23-3.66-1.3-4.72-3.09-1.56-2.66-2.17-5.62-2.82-8.59-1-4.34.09-8.3,2.13-12.06a39.94,39.94,0,0,1,7.39-10.34,16.23,16.23,0,0,1,10.9-4.57,21.1,21.1,0,0,1,11.69,2.4,22.78,22.78,0,0,1,6.72,5.69,17.87,17.87,0,0,0,2.54,2.32,1.54,1.54,0,0,0,2.31-.11,9.88,9.88,0,0,0,1.34-1.41c2.09-3.07,5.22-4.07,8.64-4a26.82,26.82,0,0,1,16.29,5.58,20,20,0,0,1,7.66,13.32,12.35,12.35,0,0,1-1.28,7.71c-1.17,2.32-2.31,4.65-3.62,6.9a19.24,19.24,0,0,1-5.27,5.94,5.86,5.86,0,0,0-.67.54c-.21.2-.42.45-.25.75s.45.3.75.24a8.22,8.22,0,0,0,4.56-2.76,46.94,46.94,0,0,0,7.8-13.9c1.43-3.8.22-7.59-1.34-11.11-3.47-7.85-9.62-12.68-17.83-14.78a24.1,24.1,0,0,0-12-.14,7.65,7.65,0,0,0-4.23,2.83c-1.29,1.66-1.79,1.64-3.54.41-2-1.41-3.52-3.38-5.53-4.83a19.69,19.69,0,0,0-12.23-4.19,28.3,28.3,0,0,0-10.36,1.8,18.81,18.81,0,0,0-8.29,7,45.69,45.69,0,0,0-6.17,11.62c-2.41,7.36-1.12,14.21,3.51,20.43C440.39,2858.13,440.8,2858.36,440.84,2858.89Z"/>
    <path class="cls-4" d="M557.19,2860.7a32.52,32.52,0,0,0,4.48-3.72c5.55-5.94,5.36-13.38.32-19.35a14.28,14.28,0,0,0-8.78-5.11,3.06,3.06,0,0,1-.65-.35,26.17,26.17,0,0,0,1.86-6.18c.58-4.72,0-9.22-2.8-13.22a15.77,15.77,0,0,0-6.61-5.09c-6.2-2.89-12.46-3.38-18.73-.14a47.47,47.47,0,0,0-4,2.84c-.88-.5-.58-1.35-.77-2-1.69-5.92-5.63-9.93-10.81-12.92a58,58,0,0,0-6.33-2.72c-2.3-.14-4.51-1-6.84-.86-6.2.3-11.94,1.89-16.68,6.15a10.68,10.68,0,0,0-2.61,3.42c-1.31,2.88-2.94,5.62-3.86,8.69a13.43,13.43,0,0,0-.27,4.93,2.37,2.37,0,0,0,.74,1.53.64.64,0,0,0,.57.13.59.59,0,0,0,.25-.52c-1-5.61,1.63-10.29,4.15-14.87,1.69-3.06,4.86-4.64,8-5.93,10.8-4.38,22.38-.09,28.75,7.2a13.4,13.4,0,0,1,3.36,8.92c0,.79,0,1.59,0,2.38,0,.52,0,1.06.63,1.25a1.23,1.23,0,0,0,1.46-.64l.6-.9a13.21,13.21,0,0,1,9.7-5.79c6.11-.75,11.33,1.34,16.06,4.94a10.88,10.88,0,0,1,4,7.47A15,15,0,0,1,550,2831a5.27,5.27,0,0,1-2.58,2.2,4.24,4.24,0,0,0-.77.38c-.72.42-1.84.69-1.29,1.84.48,1,1.47.7,2.31.45,1.36-.4,2.56-1.15,4.1-1.19a9.48,9.48,0,0,1,7,2.84c3.68,3.58,5.48,7.95,4.09,13.14a11.45,11.45,0,0,1-6.36,7.52c-3.16,1.54-6.62,1.9-10,2.57-.56.11-1.13.2-1.69.34-.41.11-.91.24-.87.79s.54.63,1,.62a46.83,46.83,0,0,0,6.9-.25C553.66,2861.9,555.39,2861.19,557.19,2860.7Z"/>
    <path class="cls-4" d="M506,2902.19a.88.88,0,0,0,.9-1.15,2.53,2.53,0,0,0-.59-.88c-4.28-4.27-8.38-8.74-13.58-12-3.61-2.23-7.35-4.26-11.14-6.17a6.13,6.13,0,0,0-.79-.35c-.28-.09-.6-.12-.78.16a.55.55,0,0,0,.17.76c.75.55,1.5,1.11,2.3,1.59,2.46,1.5,5,2.92,7.41,4.44a45.05,45.05,0,0,1,9.12,7.21c1.68,1.78,3.46,3.47,5.19,5.2A4,4,0,0,0,506,2902.19Z"/>
    <path class="cls-4" d="M497.3,2910.81a9.47,9.47,0,0,0-2.79-4.64,46.09,46.09,0,0,0-15.83-11c-2.45-1.09-5.14-1.26-7.79-1.51a2.06,2.06,0,0,0-.43,0c-.49,0-1.17-.07-1.23.57s.62.65,1.11.71a35.1,35.1,0,0,1,5.25,1.14,37.58,37.58,0,0,1,12.49,6.63,85.57,85.57,0,0,1,7.56,7.06A2.31,2.31,0,0,0,497.3,2910.81Z"/>
    <path class="cls-4" d="M498,2867.34a3.34,3.34,0,0,0,1,1.64,68.89,68.89,0,0,1,11.13,16.35,10.28,10.28,0,0,0,2.7,3.59c.35.28.75.52,1.17.21s.3-.78.06-1.16c-.57-.91-1.27-1.75-1.76-2.7a93.67,93.67,0,0,0-8.48-13,21.78,21.78,0,0,0-1.88-2.08,9.25,9.25,0,0,1-2.37-3.3c-.15-.43-.34-.86-.9-.61A1.11,1.11,0,0,0,498,2867.34Z"/>
    <path class="cls-4" d="M525.9,2883.82a7.21,7.21,0,0,0,2.35-3.55,77.7,77.7,0,0,0,2.29-7.87,15.58,15.58,0,0,1,4.65-8.11,2.74,2.74,0,0,0,.54-.67c.06-.09,0-.26,0-.53a2.59,2.59,0,0,0-2,1,16,16,0,0,0-3.84,5.44C527.94,2874.09,527.05,2879,525.9,2883.82Z"/>
    <path class="cls-4" d="M481.25,2815.59c-1.24.8-1.65,1.56-1.49,2.56a.85.85,0,0,0,.93.72c.48,0,.5-.44.38-.79C480.83,2817.38,481.24,2816.7,481.25,2815.59Z"/>
    <path class="cls-4" d="M488,2830.48c-.7.24-1.49.41-1.73,1.29-.09.29,0,.63.38.6a2.22,2.22,0,0,0,1.86-1.19C488.76,2830.76,488.46,2830.56,488,2830.48Z"/>
    <path class="cls-4" d="M428.14,2880c0,.47,0,1.18.58,1.2.79,0,.67-.76.67-1.29s.21-1.17-.56-1.11C428.25,2878.8,428.17,2879.42,428.14,2880Z"/>
    <path class="cls-4" d="M431.5,2888.81l-1.78-2.4C429.24,2887.87,429.53,2888.32,431.5,2888.81Z"/>
    <path class="cls-4" d="M442.87,2846.43c-.05.74.13,1.32.94,1.46a.41.41,0,0,0,.47-.35c.11-.52-.61-1.77-1-1.73S442.93,2846.18,442.87,2846.43Z"/>
    <path class="cls-4" d="M484.17,2808.6c-.13,0-.33,0-.39.05-.46.57-1.25,1-.82,2,0,.07.26.13.37.09C483.89,2810.55,484.15,2809.87,484.17,2808.6Z"/>
    <path class="cls-4" d="M445.74,2851.91c-.5.59-.05,1.06.2,1.52s.51.82,1,.49.14-.78-.12-1.11S446.39,2851.87,445.74,2851.91Z"/>
    <path class="cls-4" d="M494.43,2830.52a2.34,2.34,0,0,0,2.48-.08A1.91,1.91,0,0,0,494.43,2830.52Z"/>
    <path class="cls-4" d="M440.5,2893.84c-.56-.83-1.19-1.09-2-.63a.37.37,0,0,0-.07.38C439,2894.38,439.73,2894.15,440.5,2893.84Z"/>
    <path class="cls-4" d="M496.24,2801.6c-.72-1.13-1.52-1.21-2.69-.18Z"/>
    <path class="cls-4" d="M540.91,2818.56c-.45-.81-1.19-1-1.85-1.46C539,2818.25,539,2818.25,540.91,2818.56Z"/>
    <path class="cls-4" d="M434.76,2887.94a1.13,1.13,0,0,0,.83,1.08.38.38,0,0,0,.49-.29c.13-.49-.43-1.3-.88-1.26C435,2887.49,434.82,2887.66,434.76,2887.94Z"/>
    <path class="cls-4" d="M445.19,2838.64c.35,0,.43-.34.52-.6s.23-.76-.27-.84-.39.35-.41.63A.88.88,0,0,0,445.19,2838.64Z"/>
    <path class="cls-4" d="M524.58,2791.62c-.54.21-1,.55-1,1.2a.61.61,0,0,0,.71.6c.7-.11.83-.66.8-1.26A.55.55,0,0,0,524.58,2791.62Z"/>
  </g>
</svg>
