<svg id="Warstwa_1" data-name="Warstwa 1" xmlns="http://www.w3.org/2000/svg" viewBox="0 0 791.4 483.88">
  <defs>
    <style>
      .cls-1 {
        fill: #f2729d;
      }

      .cls-2 {
        fill: #482012;
      }

      .cls-3 {
        fill: #fcf2b1;
      }

      .cls-4 {
        fill: #66e2d2;
      }

      .cls-5 {
        fill: #fc9ca2;
      }
    </style>
  </defs>
  <g id="RArkJS">
    <g>
      <path class="cls-1" d="M251.33,236.09c-7.48-16.89-16.54-32.37-26.39-47.44-11.88-18.19-24.28-36.08-33.2-56-6.3-14.09-10.86-28.41-8.85-44.33,2.9-22.81,20.76-40.78,43.56-42.89,21.52-2,42.07,21.27,36.84,41.71-3.17,12.39-15.34,21-27.63,19.52C222.6,105.07,214,90.28,219.1,78.22c1.29-3,6-4.47,9.26-2.87s4.74,6.26,2.51,10.17c-1.61,2.83-2.12,5.34-1,8.47,2.13,5.79,5.15,7.75,11.27,6.74,12.1-2,19.38-14.12,16.26-27.07-5.25-21.87-29-29.4-45.64-14.31C200,70,197.84,83.64,200.64,98.51c2.31,12.27,8,23.18,14.3,33.76,14.37,24,31.95,45.71,48,68.52,10,14.24,19.2,29,26.35,44.91,1.12,2.51,3,3.52,5.15,4.57,20.72,10.28,37.82,24.47,47.5,46,12.64,28.07,14,56.05-3.79,82.65-11.94,17.86-29.67,27-50.56,30.27a13,13,0,0,0-9.4,5.61c-28.3,38.15-66,61.19-113.13,67.09-48.76,6.11-92.3-6.95-128.42-40.93C11.21,417-2.12,387.36.27,352c1.93-28.49,11.65-53.69,35.9-70.92,19.07-13.54,41-17,63.83-15.38,5.35.39,9.49-.41,14-3.67,17.59-12.7,37.8-19.24,58.92-23,25.36-4.58,50.86-6.57,76.55-2.79A11.6,11.6,0,0,0,251.33,236.09Zm36.41,166.15c23.9-3.46,41.64-15.41,51-38.11,12.75-31,3.55-67.41-22.5-90.84a97.36,97.36,0,0,0-21.72-15.06c.81,2.44,1.33,4,1.82,5.5,8.89,27.91,12.45,56.32,8.54,85.54-2.5,18.66-8.74,36-17.76,52.36l.06,1ZM101.41,272.49a87.69,87.69,0,0,0-26.09.74c-30,5.18-51.67,21.12-62,50.25C1.28,357.57,6.62,389.69,27,419.21c9.08,13.13,19.72,25.08,34.78,31.73,23.39,10.32,47.83,15.27,73.5,13.42,21.38-1.54,42-6.76,62.26-13.25a107.73,107.73,0,0,0,39.09-22.46,98.6,98.6,0,0,0,17.85-20.78c-1.73-.53-3-.9-4.29-1.33-21.41-7.31-36.93-20.84-44.05-42.73-4.85-14.92-5.11-29.78,2.83-44a17.6,17.6,0,0,1,13.65-9.19c5.23-.71,9.14,1.43,11.05,5.81,1.84,4.2.78,7.88-3.91,11.21-4,2.85-8.43,5.14-12.61,7.79-5,3.2-7.83,7.46-7.17,13.84,2.43,23.57,18.53,44.53,45.84,51.78,2.5.66,3.46-.58,4.45-2.46a134.56,134.56,0,0,0,15.53-58.1c1.42-32.28-6.9-62.57-18.87-92.14-1.58-3.92-3.88-5.29-7.77-5.88-18.86-2.86-37.71-2.43-56.5.21-17.82,2.51-35.52,5.76-52.29,12.68-7.81,3.22-15.42,6.89-22.82,12.45,2.41.69,4.09,1.19,5.77,1.65C143.24,275,161,284.12,175,299.69c19.08,21.21,19.46,53.68.84,74.81-20.13,22.84-57.75,22-80-1.8-19.11-20.44-23.2-50-10.64-76.58A94,94,0,0,1,101.41,272.49ZM84.33,326.92c.79,19.45,8.45,36,24.68,48.11,19.33,14.4,46.73,12.18,62.2-4.81,13.63-15,15.79-41.59,3.53-58.94C159.51,289.72,137.27,279,112,273.68c-2-.42-3.07.8-4.25,1.9C93,289.3,85,306.12,84.33,326.92Z"/>
      <path class="cls-1" d="M530.45,229c10-.92,19.92-2.23,30-.93,15.3,2,28.4,8.06,39,19.31,2.89,3.06,5.6,6.34,10.65,5.38,2.12-.41,3.13-1,3.08-3.38-.25-10.51-.35-21-.5-31.52a17.25,17.25,0,0,1,0-2.69c.25-1.75,14.42-15.54,16.22-15.77,2.93-.38,3.09,1.85,3.2,3.79.51,9.13.93,18.27,1.37,27.41.28,5.69.64,11.38.76,17.08.06,2.38,1,3.19,3.25,2.89,6.15-.79,12.28.3,18.43.12,2.69-.08,5.06.44,4.93,3.69-.14,3.48-3,2.63-5.14,2.61-5.85-.05-11.7-.26-17.55-.36-2.31,0-3.77.4-3.66,3.53.7,19.63.86,39.29,1.75,58.92,1.25,27.29,4.33,54.37,11.41,80.87,1.1,4.1,2.06,5.47,6.8,3.36,25.71-11.51,52.6-18.36,81-18.15,13.91.11,27.22,3.09,38.14,12.39,24,20.5,22.75,49,1.74,70.55-9.92,10.19-22.78,13.59-36.56,15.17-37.93,4.35-65-13.68-87.52-41.56a121.18,121.18,0,0,1-12.95-19.43c-1.45-2.75-2.53-3.19-5.39-1.8C615,429.09,597.17,438,578.07,443.91c-23.89,7.38-48.21,11.31-73.17,6.74-15.25-2.79-28.08-9.58-34.89-24.58a47.45,47.45,0,0,1-4-19.68c0-4.49,3.47-8.08,7.41-7.94,4.93.18,7.82,3.09,8,7.9.13,3.39-1.19,6.47-2,9.65-2,8,.32,14.43,6.8,19.42,10.49,8.1,22.86,10.33,35.58,10.55,27.63.49,53.59-7,78.86-17.46,10.11-4.18,19.93-8.95,29.73-13.8,2.27-1.13,3.19-2,1.93-4.68-7.89-16.66-10.41-34.61-12.27-52.7-3.27-31.64-4.68-63.41-6.25-95.17-.13-2.67-1-3.28-3.52-3a11.56,11.56,0,0,1-10.82-4.09c-10.59-12-24.5-17.32-40.08-18.83-19.2-1.86-37.54,3-55.84,7.63-20.18,5.16-40.49,8.69-61.4,5.86a138.42,138.42,0,0,1-16.34-2.95c-3.53-.91-4.52-.48-5,3.37-1.85,15.16-6.88,29.12-17.28,40.69-9.48,10.55-23.21,14.3-35,9.76A15.62,15.62,0,0,1,362,296c-23.33-27.4-23.64-70.29-.64-98.06a29.3,29.3,0,0,1,7.92-7.26c4-2.24,8.11-2.59,11.71.55,2.34,2,4,1.57,6.2-.06A19.5,19.5,0,0,1,400,187.61a10.8,10.8,0,0,1,8.86,4.75c9.26,12.06,12.11,25.91,12.75,40.47.18,3.93,1.16,5.52,5.21,6.42,20.77,4.64,41.39,3.57,62-.8,1-.21,2.07-.38,3.1-.58,1.24,1.86-.65,3.47-.72,5.42,4.73-.23,5.32-3.67,6.2-6.86L530.46,229ZM733.87,473.21c16.6.07,30.84-5.93,40.5-15.95,14.22-14.75,14.9-32.87,1.74-48.48C766.44,397.3,753.37,393,739,392.24c-29.7-1.52-57.53,6.2-84.43,18.1-2.81,1.25-1.55,2.46-.68,4,9.16,16.45,20.77,30.84,36,42.09C703.69,466.68,719.07,472.81,733.87,473.21ZM378,203.63c-9.13,10.69-14.95,21.55-18,33.72-4.56,18.36-3.4,35.93,8.42,51.75,1.95,2.6,3.83,2.87,6.46,1.33a31.27,31.27,0,0,0,12.75-14.66c5.17-11.34,7.16-23.36,8-35.69.24-3.52-.68-5.65-3.61-7.78C382.85,225.63,376.82,217.07,378,203.63Zm8-1.73c-3.8,7.82-.63,16.34,8.23,22.53A50.65,50.65,0,0,0,386,201.9Z"/>
      <path class="cls-1" d="M393.23,387c4.66-16.18,8-31.9,15.14-46.41,1-2.05.95-4.64,1.41-7,1.79-9,7.82-11.46,15.35-13.9,2.48-.81,4,.66,4,3.34a24.77,24.77,0,0,1-.19,5.39c-1.63,7.25,0,14,2.9,20.55,4.77,10.89,5.64,23,10.56,33.81.8,1.76,1.49,3.58,2.58,6.21,4.82-14.21,11.86-26.79,14.59-41,.34-1.76.54-3.57,1-5.28,1.37-4.65,1.24-9-1.35-13.33a17.14,17.14,0,0,1-2.37-10.38c.52-5.57,5.71-8.14,10.34-5.11,6.15,4,8.87,12,6.92,19.32-4.57,17.22-10.94,33.81-17.35,50.39a179.22,179.22,0,0,1-8.07,18c-5.05,9.72-11.21,10.13-17.51,1.11-7.42-10.64-12.47-22.49-16.71-34.69-.71-2-1.45-4.07-2.66-7.48-2.68,8-4.91,14.78-7.16,21.51-2.86,8.53-6,16.95-10.34,24.84-2.34,4.22-6.91,4.73-10.28,1.26a37.8,37.8,0,0,1-9.21-14.73c-4.95-15.38-12-30.05-15.63-45.88-2.94-12.85.24-20.23,11.27-26.32,3.63-2,5.15-1.39,5.82,2.77a98.34,98.34,0,0,0,4.87,18.2c3.69,10.05,5.1,20.62,7.32,31A46.1,46.1,0,0,0,393.23,387Z"/>
      <path class="cls-1" d="M542,379.21c-4.33,6.69-8.62,12.94-14,18.41-18.62,19-40.66,14.21-50.18-7.42-9.34-21.21-.81-51.39,18.32-64.45,3.4-2.33,7.12-4.46,11.45-4.79,11.19-.86,18.52,8,16.61,20.17-1.49,9.49-6.72,16.85-13.44,23.33a58.62,58.62,0,0,1-16.16,11.26c-2.22,1-3,2.22-2.31,4.47.5,1.72.89,3.48,1.45,5.18,4.45,13.49,14.66,17.39,26.71,9.88,10.13-6.32,15.48-16.58,20.28-26.92,1.68-3.61.93-8.28,1.74-12.38a53.12,53.12,0,0,1,19-31.76c4-3.29,8.63-5.95,14.17-6.08,8.84-.22,14.71,5,15.62,13.88.93,9.11-2.48,16.74-8,23.62a58.69,58.69,0,0,1-20.86,16.76c-2.89,1.35-3.59,2.86-2.77,5.87,1.92,7.09,3.9,14.33,11.77,16.86s14.64-.92,20.55-6.08c5.52-4.82,9.17-11,12.76-17.29q2.58-4.47,5.1-9a3,3,0,0,1,4.21-1.33,2.47,2.47,0,0,1,1.3,3.74c-7.65,13.39-14.6,27.44-28.22,36-16.47,10.39-33.58,5-41.64-12.73C544.17,385.63,543.27,382.65,542,379.21ZM558,361c.41,1.4-1.09,4.26.66,5.33,2,1.27,3.82-1.5,5.8-2.33a10.28,10.28,0,0,0,1.87-1.24c8.93-6.39,15.74-14.31,18.15-25.34,1.09-5-.91-9.73-4.73-11.63s-9.46-.7-12.57,3.19a37.38,37.38,0,0,0-4.19,6.89C559.22,343.62,558.65,352,558,361Zm-66.72,9.6c3.53-2.2,6.47-3.72,9-5.71,8.58-6.66,15.61-14.46,17.14-25.8.65-4.88-1.41-8.87-5.12-10.51s-9.12-.4-11.93,2.86a29,29,0,0,0-3.66,5.62C491.5,347.41,490.8,358.49,491.31,370.64Z"/>
      <path class="cls-2" d="M497.35,236.43c-.88,3.19-1.47,6.63-6.2,6.86.07-1.95,2-3.56.72-5.42-3-13.43-6.15-26.85-9-40.32-.62-2.9-1.95-3-4.32-2.48-10.55,2.21-21.12,4.39-31.71,6.38-5.66,1.07-7.75-.12-9.25-5.77-1.9-7.23-3.42-14.58-4.75-21.94-.54-3-1.42-4.1-4.77-4.09-11.37,0-21-5.32-30.4-11a4.65,4.65,0,0,1-1.32-1.22c-1.07-1.47-3.65-3-1.92-4.76,1.32-1.33,2.51,1.36,3.73,2.28,8.76,6.65,18.41,11.12,29.46,12.26,2.83.29,3.91-.56,3-3.47-1.62-5.13-2.68-10.41-4.95-15.36-2-4.36-5.41-7-9.35-9.28-.26-.14-.66-.11-.84-.31-5.74-6.17-13.05-11.62-14.41-20.43-2-12.93-1.35-25.63,7.1-36.87,6.19-8.23,14.44-12.78,24-15.67,8.71-2.63,17.78-4.29,26.06-9.32-3.4-1.95-6.82-3.3-9.64-5.68-15.75-13.32-12.41-37.38,6.55-46A55.75,55.75,0,0,1,485,.42c11.55,1.32,19.13,8.73,24.91,18.12,2,3.22,4,5.68,8,6.2A8.56,8.56,0,0,1,522.71,27c7.53,7.91,18.1,12.26,24.52,21.55,5.12,7.41,11.8,13.56,18.1,20,5.2,5.31,9.57,11.21,11.34,18.57,3.21,13.39-3.23,26-16.48,31.82a7.81,7.81,0,0,0-4.9,5.72,139.45,139.45,0,0,0-5,28.25c11.75-1.22,23.1-11.89,24.93-23.21.16-1,.15-1.82,1.32-1.8s1.15,1.17,1.22,2a14.46,14.46,0,0,1-4,11.54c-6.24,6.44-12.47,13.15-22.28,13.89-1.89.14-1.67,1.28-1.7,2.46-.14,4.95-.29,9.9-.41,14.84-.15,6.9-1.84,9.19-8.52,10.54-12.18,2.46-24.39,4.82-36.63,7-2.46.44-3.43,1.22-3,3.7a18.37,18.37,0,0,1,0,3.15c0,7,1.52,9.3,8.28,10.7a35.56,35.56,0,0,1,21.49,13c1.21-.51,0-2.77,1.79-2.47,1.21.21.85,1.41.86,2.23.06,3.27-.76,6.22-3.26,8.52V229c-1.55-2.46.25-5.58-2.54-8.19-4.82-4.5-9.74-8.24-16.24-9.89-11.11-2.81-12.29-4.39-12.36-15.71,0-2.89-.21-4.63-3.86-3.37a37.32,37.32,0,0,1-7.49,1.35c-2.76.36-3.54,1.45-2.81,4.34,2.76,11,5.3,22.11,7.8,33.2C493.56,233.43,493.42,236.44,497.35,236.43Zm12.84-113.69-.07.06c4.78-.11,8-3.18,11.09-6.17,8.82-8.44,16.26-18.06,23.21-28,6.54-9.39,6.89-19.47,2.64-29.89-1.89-8-5-15.06-13.46-19.48,1.21,5,2.12,9.16,3.24,13.3,3.39,12.48-.3,22.71-9.85,31-10.07,8.79-19.67,18-26.56,29.61-1.37,2.29-5.49,4-3.59,7,1.48,2.34,5.18,2.69,8.15,3.19a7.69,7.69,0,0,0,4.43-.14ZM481.36,2.88l-.71-.18c-10-.16-19.84.95-28.37,6.76-8.11,5.51-11.81,13.4-10.66,23.21,1.12,9.58,6.35,16.41,15.18,20.14,12.5,5.28,26.29-2.13,27.76-14.67a14.1,14.1,0,0,0-7.17-13.5c-4.81-2.62-10.33-2.33-13.91.83-1.73,1.52-3.32,3.28-2.43,5.81s2.77,3.38,5.35,3.14c.77-.07,1.86-.52,2.12.84-.14.27-.21.68-.4.76-3.63,1.39-7.17.19-8.89-3s-.69-7.45,2.75-9.89c4.83-3.42,10.1-3.47,15.39-1.32A14.2,14.2,0,0,1,486.71,34,20.43,20.43,0,0,1,466.41,57c-1.93,0-3.81-.11-5.59,1.12-5.13,3.51-11,5.39-16.89,7.1-7.18,2.07-14.57,3.58-21.23,7.13-10.77,5.73-16.82,14.82-18.68,26.9,5.94-8.84,15.43-13.12,23.73-18.89.9-.62,2-2.06,3-.63s-.58,2.12-1.51,2.75c-5,3.36-10.07,6.52-14.93,10-4.05,2.91-7.51,6.43-8.75,11.54-3.83,8.33-3.31,15.65,1.74,20.94a20.57,20.57,0,0,1,5.89-16.06,48,48,0,0,1,11.29-8.82c8-4.7,16.62-8.19,25.21-11.69,9.53-3.89,19.3-7.3,27.76-13.43,1.56-.24,2.62-1.36,3.82-2.22A56,56,0,0,0,493.51,60.9c.67-.88,1.47-1.82,2.56-1.09,1.24.83.36,1.88-.28,2.68-1.22,1.51-2.49,3-3.82,4.41-10.32,11-23.8,16.86-37.39,22.47-9.68,4-19.58,7.47-28.67,12.75-5,2.88-9.46,6.37-12.68,11.22-5,7.5-4,17.25,2,21.68.75-.77.23-1.67.22-2.49a18.41,18.41,0,0,1,12.11-17.68c1-.34,2.25-1.08,2.87,0,.9,1.58-.77,1.94-1.76,2.43a19.63,19.63,0,0,0-8.94,7.91c-2.42,4.31-2.44,8.63.42,12.69,2.68,3.81,6.72,4.88,11.12,4.3a15.62,15.62,0,0,0,7.92-2.89c6.74-3.64,9.87-10.24,13.35-16.51,4.33-7.8,9.32-15,16.54-20.47,7.81-5.91,16.52-10.28,25.09-14.91,7.25-3.92,14.54-7.81,20.35-13.86,6.62-6.9,9.36-15.11,7-24.37a89.81,89.81,0,0,0-20-37.25c-5.2-5.88-12-9.48-20.22-9.13Zm70.92,118.75a15.91,15.91,0,0,0-10.48,2.77,11.34,11.34,0,0,1-16-2.94c-2.07-2.87-3.11-2.26-5.36-.46-7.41,5.94-15.54,6.68-23.92,2.21-2.1-1.12-3.13-1.07-4.77.8-5.43,6.19-11.8,11.09-20.12,12.83-7.89,1.65-12.52-.75-16-8.07-.44-.93-.13-2.56-2-2.74-5.7,10.54-13,19.12-27.08,18.88,3.6,6.72,5.24,13.4,6.76,20.08,2.11,9.19,3.65,18.51,5.75,27.7,1.35,5.92,3.34,7,9.42,5.95,3.25-.56,6.44-1.41,9.67-2q40.16-7.78,80.33-15.54c6.87-1.32,8-2.59,8.06-9.46.13-16.71,1.86-33.21,6.48-49.33,0-.36-.09-.72-.13-1.08ZM515,26.76c2.49,5.49,4.74,9.88,6.53,14.46,6.28,16.14,3,27.83-10.65,38.45a79,79,0,0,1-8.9,6.08c-7.37,4.29-14.87,8.36-22.29,12.56a60.43,60.43,0,0,0-22,20.73c-.86,1.39-1.69,2.65-1.33,4.54,1.66,8.7,8,12.77,16.52,10.37a30.92,30.92,0,0,0,10.62-5.68c6.12-4.77,10.75-10.87,15-17.23a134.18,134.18,0,0,1,21.28-24.29c2.65-2.43,5.39-4.78,7.85-7.39,4-4.19,7.48-8.83,7.65-14.85a55.89,55.89,0,0,0-6.44-28.13C526.13,31.33,521.56,28.33,515,26.76ZM550,56a4.67,4.67,0,0,0,.18,3.47c4.27,12.71,1.95,24.18-6.45,34.53-5.38,6.63-10.66,13.35-16.19,19.85-1.86,2.18-1.78,3.87-.14,5.88,2.12,2.58,4.71,4.08,8.17,3.87,4.58-.28,7.84-2.64,10.26-6.35,3.19-4.92,5.19-10.44,7.81-15.64.56-1.11.64-3.69,2.61-2.76,1.48.69-.12,2.42-.6,3.5-2.44,5.5-5.05,10.91-7.82,16.82C558.74,118.32,567,114,572,105c5-8.84,3.57-17.68-1.73-25.94C564.78,70.39,556.67,64,550,56Z"/>
      <path class="cls-3" d="M553,122.27c-4.62,16.12-6.35,32.62-6.48,49.33,0,6.87-1.19,8.14-8.06,9.46q-40.17,7.73-80.33,15.54c-3.23.63-6.42,1.48-9.67,2-6.08,1.05-8.07,0-9.42-5.95-2.1-9.19-3.64-18.51-5.75-27.7-1.52-6.68-3.16-13.36-6.76-20.08,14.09.24,21.38-8.34,27.08-18.88,1.91.18,1.6,1.81,2,2.74,3.45,7.32,8.08,9.72,16,8.07,8.32-1.74,14.69-6.64,20.12-12.83,1.64-1.87,2.67-1.92,4.77-.8,8.38,4.47,16.51,3.73,23.92-2.21,2.25-1.8,3.29-2.41,5.36.46a11.34,11.34,0,0,0,16,2.94,15.91,15.91,0,0,1,10.48-2.77ZM482.37,174.6c7.68-.08,14.84-5,17-11.78.39-1.2,1.52-2.94-.11-3.59-1.85-.74-1.73,1.51-2.22,2.54-4.57,9.73-12.47,12.49-22.23,7.7-.54-.27-1.05-.6-1.59-.85s-1.29-1-1.92-.09c-.52.75-.12,1.45.43,2A14.52,14.52,0,0,0,482.37,174.6Zm-25.3-3.47c-.08-4-2.24-5.79-5.39-5.82s-5.13,2.14-5.38,5.4c-.19,2.36,3.24,5.53,5.81,5.06S457.5,174.34,457.07,171.13ZM462,143.84A12,12,0,0,0,450.19,154c-.11.88-.48,1.87.72,2.2s1.43-.58,1.66-1.5a10.92,10.92,0,0,1,3.84-6.38c4-3.09,7.94-2.57,12.81,1.61.77.66,1.41,2.52,2.77,1.09,1.12-1.17-.19-2.18-.91-3A11.93,11.93,0,0,0,462,143.84Zm46.17,1.09a8.64,8.64,0,0,0-3-4.56c-5-3.85-12.25-1.45-15.06,5-.44,1-1.53,2.38,0,3.08,1.35.62,1.43-1.14,1.91-1.91,4.64-7.4,8.89-7.5,13.8-.27.46.67,1,1.16,1.82.82C508.28,146.88,508.36,146.25,508.19,144.93Zm14.64,12.47c-.14-2.58-1.58-4.29-4.51-4-2.67.23-4.61,1.94-4.47,4.65a4.47,4.47,0,0,0,4.8,4.35C521.66,162.38,522.82,160.49,522.83,157.4Zm-41.49-5.35c0-1.06,1.5-2.28-.35-3-.64-.27-1,.28-1.42.75-2.14,2.62-.57,9.24,2.53,10.63.88.4,1.79.49,2.39-.37s0-1.37-.64-1.85C481.87,156.58,480.66,154.68,481.34,152.05Z"/>
      <path class="cls-1" d="M405.57,104c1.24-5.11,4.7-8.63,8.75-11.54,4.86-3.49,10-6.65,14.93-10,.93-.63,2.47-1.41,1.51-2.75s-2.11,0-3,.63c-8.3,5.77-17.79,10-23.73,18.89,1.86-12.08,7.91-21.17,18.68-26.9,6.66-3.55,14.05-5.06,21.23-7.13,5.92-1.71,11.76-3.59,16.89-7.1,1.78-1.23,3.66-1.08,5.59-1.12A20.43,20.43,0,0,0,486.71,34a14.2,14.2,0,0,0-9.34-12.2c-5.29-2.15-10.56-2.1-15.39,1.32-3.44,2.44-4.5,6.66-2.75,9.89s5.26,4.37,8.89,3c.19-.08.26-.49.4-.76-.26-1.36-1.35-.91-2.12-.84-2.58.24-4.5-.73-5.35-3.14s.7-4.29,2.43-5.81c3.58-3.16,9.1-3.45,13.91-.83a14.1,14.1,0,0,1,7.17,13.5c-1.47,12.54-15.26,20-27.76,14.67-8.83-3.73-14.06-10.56-15.18-20.14-1.15-9.81,2.55-17.7,10.66-23.21,8.53-5.81,18.34-6.92,28.37-6.76l.71.18-.11-.07c7.12,5.44,14.47,10.59,20.09,17.75,7.57,9.65,12.52,20.07,9.79,32.76-2.82,13.14-10.47,23-21.36,30.46S468,98.52,457.33,106.32c-11.23,8.24-17.39,19.08-18.12,33a15.62,15.62,0,0,1-7.92,2.89c-4.4.58-8.44-.49-11.12-4.3-2.86-4.06-2.84-8.38-.42-12.69a19.63,19.63,0,0,1,8.94-7.91c1-.49,2.66-.85,1.76-2.43-.62-1.1-1.91-.36-2.87,0a18.41,18.41,0,0,0-12.11,17.68c0,.82.53,1.72-.22,2.49-6.06-4.43-7-14.18-2-21.68,3.22-4.85,7.71-8.34,12.68-11.22,9.09-5.28,19-8.76,28.67-12.75C468.17,83.76,481.65,77.94,492,66.9c1.33-1.42,2.6-2.9,3.82-4.41.64-.8,1.52-1.85.28-2.68-1.09-.73-1.89.21-2.56,1.09a56,56,0,0,1-12.23,11.82c-1.2.86-2.26,2-3.82,2.22.38-3.9-1.76-2-3.18-1.31a238.33,238.33,0,0,1-34.2,12.31c-11.86,3.43-23.59,7.13-32.18,16.85A7.45,7.45,0,0,1,405.57,104Z"/>
      <path class="cls-1" d="M515,26.76c6.56,1.57,11.13,4.57,13.81,9.62a55.89,55.89,0,0,1,6.44,28.13c-.17,6-3.69,10.66-7.65,14.85-2.46,2.61-5.2,5-7.85,7.39A134.18,134.18,0,0,0,498.47,111c-4.25,6.36-8.88,12.46-15,17.23A30.92,30.92,0,0,1,472.85,134c-8.51,2.4-14.86-1.67-16.52-10.37-.36-1.89.47-3.15,1.33-4.54a60.43,60.43,0,0,1,22-20.73c7.42-4.2,14.92-8.27,22.29-12.56a79,79,0,0,0,8.9-6.08c13.67-10.62,16.93-22.31,10.65-38.45C519.74,36.64,517.49,32.25,515,26.76Z"/>
      <path class="cls-1" d="M550,56c6.63,8,14.74,14.36,20.27,23,5.3,8.26,6.68,17.1,1.73,25.94-5.07,9.06-13.3,13.37-24.17,14.25,2.77-5.91,5.38-11.32,7.82-16.82.48-1.08,2.08-2.81.6-3.5-2-.93-2,1.65-2.61,2.76-2.62,5.2-4.62,10.72-7.81,15.64-2.42,3.71-5.68,6.07-10.26,6.35-3.46.21-6.05-1.29-8.17-3.87-1.64-2-1.72-3.7.14-5.88,5.53-6.5,10.81-13.22,16.19-19.85,8.4-10.35,10.72-21.82,6.45-34.53A4.67,4.67,0,0,1,550,56Z"/>
      <path class="cls-4" d="M439.21,139.31c.73-13.91,6.89-24.75,18.12-33,10.62-7.8,21.56-15.12,32.44-22.54s18.54-17.32,21.36-30.46c2.73-12.69-2.22-23.11-9.79-32.76-5.62-7.16-13-12.31-20.09-17.75,8.27-.35,15,3.25,20.22,9.13a89.81,89.81,0,0,1,20,37.25c2.4,9.26-.34,17.47-7,24.37-5.81,6-13.1,9.94-20.35,13.86-8.57,4.63-17.28,9-25.09,14.91-7.22,5.46-12.21,12.67-16.54,20.47C449.08,129.07,446,135.67,439.21,139.31Z"/>
      <path class="cls-3" d="M509.42,123.22a7.69,7.69,0,0,1-4.43.14c-3-.5-6.67-.85-8.15-3.19-1.9-3,2.22-4.73,3.59-7,6.89-11.59,16.49-20.82,26.56-29.61,9.55-8.31,13.24-18.54,9.85-31-1.12-4.14-2-8.33-3.24-13.3,8.41,4.42,11.57,11.51,13.46,19.48-1,11.08-5.76,20.53-12.25,29.38-8.4,11.46-16.48,23.14-24.69,34.72l.07-.06Z"/>
      <path class="cls-3" d="M405.57,104a7.45,7.45,0,0,0,2.33-1.21c8.59-9.72,20.32-13.42,32.18-16.85a238.33,238.33,0,0,0,34.2-12.31c1.42-.66,3.56-2.59,3.18,1.31-8.46,6.13-18.23,9.54-27.76,13.43-8.59,3.5-17.18,7-25.21,11.69a48,48,0,0,0-11.29,8.82,20.57,20.57,0,0,0-5.89,16.06C402.26,119.65,401.74,112.33,405.57,104Z"/>
      <path class="cls-4" d="M510.12,122.8c8.21-11.58,16.29-23.26,24.69-34.72,6.49-8.85,11.23-18.3,12.25-29.38,4.25,10.42,3.9,20.5-2.64,29.89-6.95,10-14.39,19.6-23.21,28C518.09,119.62,514.9,122.69,510.12,122.8Z"/>
      <path class="cls-4" d="M481.36,2.88l-.71-.18Z"/>
      <path class="cls-4" d="M509.42,123.22l.77-.48Z"/>
      <path class="cls-3" d="M552.28,121.63l.61-.44c0,.36.09.72.13,1.08C552.78,122.05,552.53,121.84,552.28,121.63Z"/>
      <path class="cls-2" d="M482.37,174.6a14.52,14.52,0,0,1-10.63-4.08c-.55-.54-.95-1.24-.43-2,.63-.9,1.3-.18,1.92.09s1,.58,1.59.85c9.76,4.79,17.66,2,22.23-7.7.49-1,.37-3.28,2.22-2.54,1.63.65.5,2.39.11,3.59C497.21,169.59,490.05,174.52,482.37,174.6Z"/>
      <path class="cls-5" d="M457.07,171.13c.43,3.21-2.31,4.15-5,4.64s-6-2.7-5.81-5.06c.25-3.26,2.12-5.42,5.38-5.4S457,167.1,457.07,171.13Z"/>
      <path class="cls-2" d="M462,143.84a11.93,11.93,0,0,1,9.06,4.17c.72.86,2,1.87.91,3-1.36,1.43-2-.43-2.77-1.09-4.87-4.18-8.76-4.7-12.81-1.61a10.92,10.92,0,0,0-3.84,6.38c-.23.92-.47,1.83-1.66,1.5s-.83-1.32-.72-2.2A12,12,0,0,1,462,143.84Z"/>
      <path class="cls-2" d="M508.19,144.93c.17,1.32.09,1.95-.54,2.2-.83.34-1.36-.15-1.82-.82-4.91-7.23-9.16-7.13-13.8.27-.48.77-.56,2.53-1.91,1.91-1.54-.7-.45-2.07,0-3.08,2.81-6.49,10.08-8.89,15.06-5A8.64,8.64,0,0,1,508.19,144.93Z"/>
      <path class="cls-5" d="M522.83,157.4c0,3.09-1.17,5-4.18,5a4.47,4.47,0,0,1-4.8-4.35c-.14-2.71,1.8-4.42,4.47-4.65C521.25,153.11,522.69,154.82,522.83,157.4Z"/>
      <path class="cls-2" d="M481.34,152.05c-.68,2.63.53,4.53,2.51,6.12.61.48,1.17,1.1.64,1.85s-1.51.77-2.39.37c-3.1-1.39-4.67-8-2.53-10.63.38-.47.78-1,1.42-.75C482.84,149.77,481.29,151,481.34,152.05Z"/>
    </g>
  </g>
</svg>
