<svg xmlns="http://www.w3.org/2000/svg" viewBox="0 0 50.39 73.28">
  <defs>
    <style>
      .cls-1 {
        fill: #ffa0bc;
      }
    </style>
  </defs>
  <g id="Warstwa_2" data-name="Warstwa 2">
    <g id="Warstwa_1-2" data-name="Warstwa 1">
      <path class="cls-1" d="M46.89,12.55A24.84,24.84,0,0,0,25.76,0H24.63A24.84,24.84,0,0,0,3.5,12.55a25.5,25.5,0,0,0-.33,25.21L21.34,71l0,0a4.42,4.42,0,0,0,7.67,0l0,0L47.22,37.76a25.52,25.52,0,0,0-.33-25.21ZM25.19,33.2A10.31,10.31,0,1,1,35.5,22.9,10.31,10.31,0,0,1,25.19,33.2Z"/>
    </g>
  </g>
</svg>
