<svg id="Warstwa_1" data-name="Warstwa 1" xmlns="http://www.w3.org/2000/svg" viewBox="0 0 440.84 247.85">
  <defs>
    <style>
      .cls-1 {
        fill: #fff;
      }
    </style>
  </defs>
  <g id="RArkJS">
    <g>
      <path class="cls-1" d="M140.47,109.16a175.69,175.69,0,0,0-13.59-24.69c-6.86-10.6-14.17-20.94-19.34-32.55-3.43-7.68-5.9-15.51-4.8-24.19A26.87,26.87,0,0,1,126.69,4C138.52,2.88,149.9,15.7,147.05,27a14.38,14.38,0,0,1-15.67,10.77c-6.91-1-11.57-9.53-8.61-15.8.7-1.49,3.25-2.23,5-1.43a3.94,3.94,0,0,1,1.45,5.58,5.31,5.31,0,0,0-.5,4.9c1.11,2.95,2.89,4.06,6.1,3.54,6.67-1.06,10.78-7.74,9-14.87-2.47-10-14-17.63-25.1-7.95-6.59,5.73-7.74,13.34-6.21,21.54,1.26,6.76,4.37,12.77,7.86,18.6,8,13.29,17.71,25.32,26.59,38a148.53,148.53,0,0,1,14.38,24.54c.71,1.58,2,2.09,3.26,2.75,11.21,5.67,20.37,13.47,25.78,25.08,5.3,11.35,7,23.16,3.05,35.17-5.23,15.94-17,24.46-33.19,27.13a6.66,6.66,0,0,0-4.82,2.82c-15.62,21.25-36.55,34-62.69,37.23-26.68,3.31-50.52-3.84-70.34-22.36C8.26,209,.82,192.6,2.13,173c1-15.69,6.38-29.59,19.73-39.09,10.58-7.53,22.73-9.44,35.41-8.49a10.29,10.29,0,0,0,7.48-2c9.53-6.93,20.51-10.53,32-12.64,14.13-2.6,28.35-3.74,42.67-1.63A8.6,8.6,0,0,0,140.47,109.16Zm20.05,91.49c13.17-1.92,22.94-8.49,28.08-21,7-17.1,2-37.15-12.39-50.06a53.16,53.16,0,0,0-11.6-8.1c-.1.34-.16.43-.14.49.25.79.52,1.57.77,2.35,4.9,15.38,6.86,31,4.7,47.13a81.77,81.77,0,0,1-9.79,28.85l0,.55ZM67.09,126.33c.13.24.15.36.21.38.85.27,1.71.55,2.58.79a60.18,60.18,0,0,1,22.9,11.3c10.29,8.4,15.61,18.86,13,32.44-2.69,13.95-14,23.27-28,23.27-13.4,0-25.94-9.07-30.54-22.44C42.07,157.18,45.92,144,55.38,132c.72-.92,1.51-1.79,2.45-2.9a51.47,51.47,0,0,0-14.54.47c-16.52,2.93-28.42,11.78-34,27.84C2.7,176.22,5.68,193.91,17,210.15c5,7.23,10.94,13.74,19.22,17.42A84,84,0,0,0,71,235.14c11.55-.06,22.75-2.6,33.84-5.72,8.75-2.46,17-5.88,24.21-11.49a57.67,57.67,0,0,0,13.14-14.17c-1-.31-1.79-.53-2.55-.8C128.43,199.09,120.08,192,116,180.7c-3.09-8.54-3.45-17.13,1.12-25.39a9.67,9.67,0,0,1,7.25-5.07c3-.49,5.26.64,6.36,3.09s.43,4.46-2.28,6.35c-2.16,1.52-4.51,2.75-6.75,4.15-2.78,1.75-4.36,4.07-4,7.6C119,185,128.56,196.36,143.13,200c1.33.34,1.75-.43,2.23-1.33a74,74,0,0,0,8.59-32c.79-17.87-3.83-34.63-10.47-51a4.35,4.35,0,0,0-3.91-3c-19.81-2.79-39,0-57.87,6.17A52.76,52.76,0,0,0,67.09,126.33ZM48.44,159.19c.42,10.66,4.66,19.86,13.72,26.55,10.29,7.59,24.81,6.69,33.38-2s9.72-24.16,2.09-34.2c-8.47-11.16-20.34-17-33.84-19.76-1.24-.26-1.86.46-2.56,1.12A38.91,38.91,0,0,0,48.44,159.19Z"/>
      <path class="cls-1" d="M294.24,105.17c5.5-.5,11-1.22,16.55-.51A34.63,34.63,0,0,1,332.3,115.3c1.6,1.69,3.09,3.5,5.87,3,1.17-.23,1.73-.57,1.7-1.87-.13-5.79-.19-11.57-.28-17.36a10.58,10.58,0,0,1,0-1.49c.14-1,8-8.56,8.94-8.68,1.62-.22,1.71,1,1.77,2.08.28,5,.51,10.07.75,15.1.15,3.14.35,6.28.42,9.41,0,1.32.54,1.76,1.79,1.6,3.39-.44,6.77.16,10.15.06,1.49,0,2.79.24,2.72,2s-1.67,1.45-2.83,1.44c-3.22,0-6.45-.15-9.67-.2-1.28,0-2.08.22-2,1.94.39,10.82.48,21.65,1,32.46.68,15,2.38,30,6.28,44.56.61,2.26,1.14,3,3.75,1.85,14.16-6.34,29-10.11,44.6-10,7.67.05,15,1.7,21,6.82,13.26,11.29,12.54,27,1,38.87-5.46,5.62-12.55,7.49-20.14,8.36-20.9,2.4-35.82-7.54-48.22-22.9a66.53,66.53,0,0,1-7.14-10.71c-.8-1.51-1.39-1.75-3-1-9.88,4.77-19.71,9.68-30.23,12.93-13.17,4.07-26.57,6.23-40.32,3.72-8.4-1.54-15.47-5.28-19.22-13.55a26.05,26.05,0,0,1-2.22-10.84,4.25,4.25,0,1,1,8.49,0c.06,1.87-.66,3.57-1.1,5.32a9.55,9.55,0,0,0,3.75,10.7c5.78,4.46,12.6,5.69,19.6,5.81,15.23.27,29.53-3.86,43.45-9.62,5.57-2.3,11-4.93,16.38-7.61,1.26-.62,1.76-1.11,1.07-2.57-4.35-9.18-5.74-19.07-6.77-29-1.79-17.43-2.57-34.94-3.44-52.44-.07-1.47-.55-1.8-1.94-1.63a6.37,6.37,0,0,1-6-2.25c-5.84-6.64-13.5-9.54-22.08-10.38-10.58-1-20.68,1.63-30.77,4.21-11.12,2.84-22.31,4.78-33.83,3.22a77.79,77.79,0,0,1-9-1.62c-1.94-.5-2.49-.27-2.75,1.85-1,8.36-3.79,16-9.52,22.43-5.23,5.81-12.79,7.87-19.29,5.37a8.54,8.54,0,0,1-3.57-2.53c-12.86-15.1-13-38.73-.36-54a16,16,0,0,1,4.37-4c2.19-1.23,4.46-1.42,6.45.3,1.29,1.12,2.18.87,3.41,0a10.77,10.77,0,0,1,7-2A6,6,0,0,1,227.22,85c5.1,6.64,6.67,14.28,7,22.3.09,2.16.64,3,2.87,3.53,11.44,2.56,22.8,2,34.16-.43.56-.12,1.13-.22,1.7-.32.69,1-.36,1.91-.39,3,2.6-.13,2.93-2,3.41-3.77l18.25-4.09ZM405.44,195c-15.9.36-27.82,3.64-42.68,10.08-1.09.47-1.32.87-.7,2,7.32,12.74,16.56,23.54,30.45,29.4,11.52,4.85,22.81,5,33.26-2.93,12.52-9.56,11.82-25.39-1.48-33.88C418.42,195.87,411.84,195,405.44,195ZM210.15,91.86c-1.06.27-1.42,1.08-1.88,1.69a45.09,45.09,0,0,0-8.36,18c-1.91,9.42-1,18.36,4.81,26.43,1.37,1.88,2.63,1.87,4.34.76a17.3,17.3,0,0,0,6.36-7.43c3.13-6.77,4.32-14,4.58-21.37a2.35,2.35,0,0,0-1.14-2.24C213.44,103.87,209.59,99.1,210.15,91.86Zm9,10.79a27.27,27.27,0,0,0-4.56-12.39C212.56,94.64,214.35,99.42,219.18,102.65Z"/>
      <path class="cls-1" d="M228.94,177.73c-1,2.93-1.78,5.14-2.51,7.37-2,6.19-4,12.4-7.16,18.14a3.34,3.34,0,0,1-5.66.72,20.65,20.65,0,0,1-5.08-8.11c-2.73-8.48-6.62-16.56-8.62-25.28-1.62-7.1.11-11.13,6.2-14.51,2-1.11,2.84-.77,3.21,1.51a54.17,54.17,0,0,0,2.68,10c2,5.53,2.83,11.36,4,17.09a34.44,34.44,0,0,0,2.52,7.67c1.56-5.43,2.95-10.37,4.39-15.29a53.39,53.39,0,0,1,3.77-9.67,8.26,8.26,0,0,0,.76-3.09,10.09,10.09,0,0,1,8.71-9.16c1.43-.2,2.24.37,2.24,1.87a13.88,13.88,0,0,1-.1,3c-.9,4,0,7.72,1.59,11.32,2.63,6,3.11,12.66,5.82,18.63.44,1,.82,2,1.42,3.44,2.67-7.83,6.53-14.76,8-22.55.18-.89.3-1.8.54-2.67a9.23,9.23,0,0,0-.8-7.82,8.76,8.76,0,0,1-1.2-5.73,3.55,3.55,0,0,1,5.67-2.6,9.68,9.68,0,0,1,3.82,10.64,280.73,280.73,0,0,1-12,33.7,24.38,24.38,0,0,1-3.3,6.08c-2.16,2.68-4.21,2.79-6.69.41s-3.83-5.17-5.31-8a89.46,89.46,0,0,1-6-14.36C229.68,179.78,229.43,179.13,228.94,177.73Z"/>
      <path class="cls-1" d="M300.69,187.83a61.84,61.84,0,0,1-7.89,10.37c-10.45,10.57-22.7,7.48-27.68-4.55-4.89-11.78-.3-27.76,10.13-35.08a13.31,13.31,0,0,1,6.29-2.7c6.24-.59,10.37,4.44,9.24,11.23-.87,5.22-3.76,9.27-7.48,12.82a32.5,32.5,0,0,1-8.92,6.17c-1.14.51-1.49,1.16-1.18,2.29.11.4.24.79.33,1.19,2.36,9.79,9.58,12.2,17.31,5.69,4.14-3.48,6.6-8.22,9-12.94.6-1.16.37-2.75.53-4.14a30,30,0,0,1,11.26-20.77,12.48,12.48,0,0,1,7.39-3.12c5-.16,8.27,2.78,8.74,7.78s-1.45,9.21-4.5,13a32.82,32.82,0,0,1-11.3,9.09c-1.49.71-2.14,1.39-1.66,3.16,1.07,4,2.17,8.08,6.63,9.45s8.06-.62,11.3-3.49c3-2.62,4.93-6,6.88-9.33q1.36-2.35,2.65-4.76c.61-1.12,1.49-1.61,2.65-1s.85,1.63.31,2.56c-3.06,5.39-6.13,10.75-10.4,15.34a23.14,23.14,0,0,1-6.71,5c-7.5,3.76-14.76,1.83-19.47-5.14A27.09,27.09,0,0,1,300.69,187.83Zm8.73-9.73V179c0,2.59.17,2.73,2.36,1.36a39.67,39.67,0,0,0,5-3.59A21.3,21.3,0,0,0,324,164.94a5.69,5.69,0,0,0-2.6-6.39,6,6,0,0,0-6.93,1.69,16.33,16.33,0,0,0-2.43,4C310.11,168.52,309.76,173.11,309.42,178.1ZM272.68,183a18.23,18.23,0,0,0,4.82-2.78c4.84-3.69,8.75-8,9.61-14.38a5.09,5.09,0,0,0-2.67-5.63,6,6,0,0,0-6.6,1.34,13.87,13.87,0,0,0-1.93,2.85C272.77,170.15,272.38,176.4,272.68,183Z"/>
      <path class="cls-1" d="M282.59,47l.51-.29C283.06,47,282.85,47,282.59,47Z"/>
      <path class="cls-1" d="M306.27,46l.33-.25c0,.2,0,.4.08.6Z"/>
    </g>
  </g>
</svg>
